<svg xmlns="http://www.w3.org/2000/svg" width="64" height="64" viewBox="0 0 64 64" fill="none">
  <rect width="64" height="64" rx="16" fill="#FF6A00"/>
  <path d="M32 18C24.268 18 18 24.268 18 32C18 39.732 24.268 46 32 46C34.1023 46 36.0964 45.5363 37.8857 44.7066L42.5858 49.4067L45.4142 46.5783L40.9897 42.1538C43.4854 39.5873 45 36.0835 45 32C45 24.268 38.732 18 32 18ZM32 22C37.2487 22 41 25.7513 41 31C41 36.2487 37.2487 40 32 40C26.7513 40 23 36.2487 23 31C23 25.7513 26.7513 22 32 22Z" fill="#FFFFFF"/>
</svg>
